<svg xmlns="http://www.w3.org/2000/svg" width="48" height="48" fill="none"><g fill-rule="evenodd" clip-rule="evenodd"><path fill="#80CAE4" d="M13.497 10.071c-.962 2.097-1.765 4.244-2.115 6.155.55.012 1.083.106 1.582.308a8.65 8.65 0 0 1 2.327 1.399 23.444 23.444 0 0 1 1.34-3.72c.364-.803.832-1.603 1.381-2.402-1.278-1.042-2.94-1.537-4.515-1.74ZM19.417 35.976a10.087 10.087 0 0 1-1.325 2.31c-.314.414-.7.77-1.13 1.075 1.017 1.16 2.448 2.218 3.95 3.139 1.144-.948 2.267-2.156 2.915-3.557a10.05 10.05 0 0 1-1.946-.969 15.124 15.124 0 0 1-2.464-1.998ZM8.845 16.658c-.507.169-.998.37-1.465.595-.048 1.688.042 3.395.405 4.808.438-.248.89-.433 1.352-.532a8.296 8.296 0 0 1 2.384-.153 15.507 15.507 0 0 1-.334-3.049 10.46 10.46 0 0 1 .194-2.101c-.838-.015-1.702.158-2.536.432ZM24.246 34.052c.173 1.002.21 2.05.094 3.102a5.795 5.795 0 0 1-.513 1.789c1.143.435 2.45.747 3.837.968.905.145 1.846.252 2.8.33.58-1.761.925-3.763.58-5.645-.995.128-1.95.17-2.849.103a21.085 21.085 0 0 1-3.949-.647ZM7.785 22.061c-1.056.602-2.01 1.565-2.785 2.533.5 1.21 1.13 2.415 1.905 3.303a5.36 5.36 0 0 1 .924-1.04 9.11 9.11 0 0 1 1.91-1.245 10.644 10.644 0 0 1-1.38-2.027 7.121 7.121 0 0 1-.574-1.524ZM35.629 26.15c-.98.693-1.98 1.282-2.999 1.741a28.133 28.133 0 0 1-4.624 1.633c.864.846 1.64 1.834 2.273 2.942.38.661.627 1.382.765 2.13 2.673-.342 5.687-1.323 8.683-2.563-.884-2.171-2.197-4.335-4.098-5.883Z"/><path fill="#80CAE4" d="M6.905 27.896c-.663.96-1.12 2.163-1.436 3.308.837.756 1.809 1.464 2.819 1.845.087-.47.218-.923.405-1.337a9.943 9.943 0 0 1 1.17-1.96 8.487 8.487 0 0 1-1.942-.951 5.088 5.088 0 0 1-1.016-.904ZM34.11 16.672a15.838 15.838 0 0 1-1.773 2.968 28.954 28.954 0 0 1-3.514 3.853c1.432.219 2.907.613 4.365 1.202a9.515 9.515 0 0 1 2.44 1.455c2.649-1.878 5.146-4.519 7.372-7.339-2.787-1.197-5.85-2.077-8.89-2.139ZM14.98 35.49a8.927 8.927 0 0 1-1.988 1.223c-.412.187-.855.3-1.314.36.325 1.248.989 2.535 1.734 3.71 1.205-.247 2.503-.682 3.55-1.422a7.347 7.347 0 0 1-.992-1.413 12.186 12.186 0 0 1-.99-2.459Z"/><path fill="#80CAE4" d="M11.683 33.216a8.213 8.213 0 0 1-2.142.124 4.419 4.419 0 0 1-1.253-.29c-.212 1.163-.154 2.47.012 3.68.405.113.83.21 1.259.278.704.114 1.43.152 2.12.065a6.246 6.246 0 0 1-.213-1.477c-.014-.825.063-1.624.217-2.38ZM23.877 5.5c-2.285 2.025-4.389 4.176-5.865 6.312.516.418.962.921 1.303 1.52a12.49 12.49 0 0 1 1.283 3.227 29.03 29.03 0 0 1 3.422-3.377c.824-.7 1.75-1.329 2.75-1.898-.414-2.261-1.57-4.22-2.893-5.784Z"/><path fill="#80CAE4" d="M32.197 8.942c-1.945.643-3.79 1.415-5.427 2.342.162.883.208 1.8.105 2.74a20.967 20.967 0 0 1-.983 4.437 27.604 27.604 0 0 1 4.854-1.488 14.78 14.78 0 0 1 3.364-.3c1.29-2.795 1.854-5.91 2.018-8.841-1.33.32-2.65.687-3.93 1.11Z"/><path fill="#00A0D3" d="M20.142 32.22c.026 1.231-.22 2.522-.725 3.756.69.7 1.512 1.374 2.464 1.999.576.38 1.232.696 1.945.968.264-.57.446-1.17.514-1.788a11.182 11.182 0 0 0-.094-3.102c-1.64-.444-3.024-1.076-4.104-1.833ZM11.381 16.226a10.482 10.482 0 0 0-.194 2.101c.017 1.104.132 2.124.334 3.05a7.395 7.395 0 0 1 3.25 1.037c-.077-1.315.09-2.834.52-4.481a8.629 8.629 0 0 0-2.327-1.4 4.436 4.436 0 0 0-1.583-.307Z"/><path fill="#00A0D3" d="M9.137 21.53a4.776 4.776 0 0 0-1.352.53c.144.556.333 1.07.574 1.525.405.767.871 1.443 1.38 2.027a7.99 7.99 0 0 1 2.514-.755c.21-.026.421-.041.632-.047-.605-.93-1.075-2.092-1.363-3.433a8.295 8.295 0 0 0-2.385.153ZM28.006 29.524c-1.603.405-3.085.596-4.4.6-.315 0-.62-.01-.915-.03.76 1.116 1.301 2.474 1.555 3.959 1.174.315 2.494.54 3.95.646.899.067 1.853.026 2.848-.102a6.682 6.682 0 0 0-.765-2.13 13.557 13.557 0 0 0-2.273-2.943Z"/><path fill="#00A0D3" d="M9.739 25.611a9.115 9.115 0 0 0-1.91 1.246c-.346.293-.651.646-.924 1.04.312.356.65.663 1.016.904.625.41 1.279.727 1.942.951.688-.9 1.507-1.646 2.399-2.182-.908-.432-1.766-1.093-2.523-1.959ZM28.823 23.493c-1.65 1.5-3.32 2.628-4.887 3.367 1.426.55 2.83 1.45 4.07 2.664 1.441-.364 2.994-.9 4.624-1.633a18.055 18.055 0 0 0 2.999-1.74 9.52 9.52 0 0 0-2.44-1.456 19.634 19.634 0 0 0-4.366-1.202ZM17.21 32.829a8.93 8.93 0 0 1-2.23 2.66c.227.81.552 1.637.99 2.458.26.492.597.963.993 1.413.429-.306.815-.66 1.129-1.075.548-.716.99-1.494 1.325-2.308-.991-1.003-1.733-2.075-2.207-3.148Z"/><path fill="#00A0D3" d="M14.636 32.017a7.993 7.993 0 0 1-2.953 1.199 10.977 10.977 0 0 0-.217 2.38c.007.485.083.98.213 1.477.458-.06.9-.172 1.313-.36a8.938 8.938 0 0 0 1.989-1.224c-.33-1.195-.444-2.376-.345-3.472ZM9.863 29.752a9.955 9.955 0 0 0-1.17 1.96 5.903 5.903 0 0 0-.405 1.338c.412.157.831.26 1.252.29.725.052 1.446.01 2.143-.124.234-1.137.648-2.19 1.214-3.088a7.51 7.51 0 0 1-3.034-.376ZM18.012 11.812a15.632 15.632 0 0 0-1.38 2.4 23.377 23.377 0 0 0-1.34 3.721 8.731 8.731 0 0 1 2.367 3.133c.639-1.428 1.622-2.962 2.939-4.507a12.537 12.537 0 0 0-1.282-3.227 5.418 5.418 0 0 0-1.304-1.52Z"/><path fill="#00A0D3" d="M26.77 11.284c-1 .57-1.927 1.197-2.75 1.898a29.068 29.068 0 0 0-3.422 3.377c.397 1.631.473 3.296.252 4.84 1.336-1.095 3.039-2.109 5.042-2.938a20.95 20.95 0 0 0 .983-4.438 9.443 9.443 0 0 0-.105-2.739ZM30.744 16.972a27.565 27.565 0 0 0-4.852 1.489c-.665 1.96-1.579 3.692-2.63 5.093.32-.063.647-.114.984-.156a16.906 16.906 0 0 1 4.578.096 28.962 28.962 0 0 0 3.513-3.853 15.853 15.853 0 0 0 1.773-2.968 14.842 14.842 0 0 0-3.366.299Z"/><path fill="#0065A3" d="M11.522 21.375c.288 1.342.756 2.504 1.363 3.434.924-.028 1.806.135 2.584.5-.4-.812-.636-1.793-.698-2.895a7.385 7.385 0 0 0-3.249-1.039ZM19.467 29.292c.428.86.653 1.862.675 2.928 1.08.757 2.463 1.389 4.104 1.833-.254-1.484-.795-2.842-1.555-3.958-1.245-.085-2.334-.357-3.224-.803ZM12.254 24.856a8 8 0 0 0-2.515.755c.757.863 1.615 1.527 2.523 1.96.791-.478 1.638-.79 2.485-.889-.715-.437-1.344-1.076-1.862-1.873-.21.006-.422.02-.631.047ZM23.935 26.86c-1.256.593-2.46.94-3.55 1.031.878.509 1.664 1.263 2.306 2.204.294.02.6.03.915.03 1.315-.005 2.798-.197 4.4-.6-1.24-1.214-2.644-2.114-4.07-2.665Z"/><path fill="#0065A3" d="M18.067 30.074c-.081.93-.377 1.87-.857 2.756.474 1.072 1.216 2.145 2.207 3.147.505-1.234.75-2.526.725-3.757-.892-.625-1.596-1.352-2.075-2.146Z"/><path fill="#0065A3" d="M16.585 30.079a6.916 6.916 0 0 1-1.949 1.938c-.098 1.095.015 2.276.345 3.472a8.93 8.93 0 0 0 2.23-2.66c-.403-.915-.62-1.845-.626-2.75ZM15.387 29.37c-.76.427-1.61.68-2.49.758-.566.898-.98 1.95-1.214 3.088a7.992 7.992 0 0 0 2.953-1.2c.088-.952.337-1.852.751-2.645ZM12.262 27.57c-.892.537-1.711 1.282-2.399 2.182a7.511 7.511 0 0 0 2.43.403c.203 0 .403-.01.604-.027.498-.794 1.117-1.474 1.83-1.981a5.65 5.65 0 0 1-2.465-.577ZM15.291 17.933c-.43 1.647-.597 3.166-.52 4.481.828.507 1.514 1.175 1.994 1.966.07-1.025.373-2.145.896-3.315a8.745 8.745 0 0 0-2.37-3.132Z"/><path fill="#0065A3" d="M20.598 16.56c-1.317 1.545-2.3 3.078-2.939 4.506a7.597 7.597 0 0 1 .675 3.125c.593-.965 1.443-1.911 2.516-2.792a12.874 12.874 0 0 0-.252-4.84ZM25.892 18.46c-2.003.83-3.706 1.843-5.042 2.939-.183 1.28-.567 2.46-1.128 3.468.995-.606 2.194-1.052 3.54-1.314 1.051-1.4 1.965-3.133 2.63-5.093Z"/><path fill="#0065A3" d="M24.246 23.398a14.02 14.02 0 0 0-.985.155c-.852 1.134-1.793 2.045-2.77 2.691 1.103-.042 2.277.166 3.444.616 1.568-.739 3.239-1.867 4.889-3.366a16.878 16.878 0 0 0-4.578-.096Z"/></g></svg>