<svg width="52" height="51" viewBox="0 0 52 51" fill="none" xmlns="http://www.w3.org/2000/svg"><g id="invite-icon.f91ed9ffb54a2b9757ae5db62c386a86" clip-path="url(#clip0_7081_17418)"><g id="Mask group"><mask id="mask0_7081_17418" maskUnits="userSpaceOnUse" x="2" y="3" width="50" height="45" style="mask-type: luminance;"><g id="Group"><path id="Vector" d="M51.5584 3.40039H2.10938V47.6005H51.5584V3.40039Z" fill="white"></path></g></mask><g mask="url(#mask0_7081_17418)"><g id="Group_2"><path id="Vector_2" d="M50.5802 19.1478C48.4212 13.7154 41.7702 10.4576 36.1364 12.6135C29.7059 15.0742 31.838 25.1876 25.9969 27.2323C22.8418 28.3373 18.1778 24.2107 14.9899 23.5778C9.11591 22.4118 3.79824 26.5117 2.48859 32.1849C1.1527 37.9746 3.29524 45.7077 9.729 47.2792C17.3924 49.1513 21.3847 42.3395 27.8134 40.3825C34.4106 38.3753 41.7464 43.1158 47.2066 37.348C51.2431 33.088 52.7177 24.5269 50.5802 19.1478Z" fill="url(#paint0_linear_7081_17418)"></path><path id="Vector_3" d="M45.0108 35.5877H10.9785C10.7245 35.5874 10.4731 35.5378 10.2386 35.4416C10.0041 35.3455 9.79102 35.2047 9.61167 35.0274C9.43232 34.85 9.2901 34.6396 9.19318 34.4081C9.09629 34.1765 9.04658 33.9284 9.04688 33.6779V12.5347C9.04658 12.2842 9.09629 12.0361 9.19318 11.8046C9.2901 11.5731 9.43232 11.3626 9.61167 11.1853C9.79102 11.0079 10.0041 10.8672 10.2386 10.771C10.4731 10.6749 10.7245 10.6253 10.9785 10.625H45.0108C45.2651 10.6253 45.5165 10.6749 45.7511 10.771C45.9853 10.8672 46.1983 11.0079 46.3775 11.1853C46.5571 11.3626 46.6995 11.5731 46.7962 11.8046C46.8932 12.0361 46.943 12.2842 46.9427 12.5347V33.6779C46.943 33.9284 46.8932 34.1765 46.7962 34.4081C46.6995 34.6396 46.5571 34.85 46.3775 35.0274C46.1983 35.2047 45.9853 35.3455 45.7511 35.4416C45.5165 35.5378 45.2651 35.5874 45.0108 35.5877Z" fill="white"></path><path id="Vector_4" d="M28.5831 19.7333L46.9427 33.6792C46.943 33.9297 46.8932 34.1778 46.7962 34.4093C46.6995 34.6409 46.5571 34.8513 46.3775 35.0287C46.1983 35.206 45.9853 35.3468 45.7511 35.4429C45.5165 35.539 45.2651 35.5886 45.0108 35.5889H10.9785C10.7245 35.5886 10.4731 35.539 10.2386 35.4429C10.0041 35.3468 9.79102 35.206 9.61167 35.0287C9.43232 34.8513 9.2901 34.6409 9.19318 34.4093C9.09629 34.1778 9.04658 33.9297 9.04688 33.6792L27.4063 19.7333C27.5751 19.6055 27.7819 19.5361 27.9947 19.5361C28.2075 19.5361 28.4143 19.6055 28.5831 19.7333Z" fill="white"></path><path id="Vector_5" d="M27.4063 26.4787L9.04688 12.5328C9.04658 12.2823 9.09629 12.0342 9.19318 11.8027C9.2901 11.5711 9.43232 11.3607 9.61167 11.1834C9.79102 11.006 10.0041 10.8653 10.2386 10.7691C10.4731 10.673 10.7245 10.6233 10.9785 10.623H45.0108C45.2651 10.6233 45.5165 10.673 45.7511 10.7691C45.9853 10.8653 46.1983 11.006 46.3775 11.1834C46.5571 11.3607 46.6995 11.5711 46.7962 11.8027C46.8932 12.0342 46.943 12.2823 46.9427 12.5328L28.5831 26.4787C28.4143 26.6065 28.2075 26.6758 27.9947 26.6758C27.7819 26.6758 27.5751 26.6065 27.4063 26.4787Z" fill="white"></path><path id="Vector_6" d="M39.0945 33.046H35.9908C35.9272 33.0459 35.8644 33.0335 35.8056 33.0095C35.7472 32.9855 35.6937 32.9503 35.6491 32.9059C35.6041 32.8616 35.5688 32.809 35.5442 32.7511C35.5201 32.6932 35.5078 32.6312 35.5078 32.5685V30.453C35.5078 30.3266 35.5588 30.2052 35.6491 30.1157C35.7398 30.0262 35.8625 29.9758 35.9908 29.9756H39.0945C39.2228 29.9758 39.3455 30.0262 39.4362 30.1157C39.5265 30.2052 39.5775 30.3266 39.5775 30.453V32.5685C39.5775 32.6312 39.5652 32.6932 39.541 32.7511C39.5165 32.809 39.4812 32.8616 39.4362 32.9059C39.3912 32.9503 39.338 32.9855 39.2797 33.0095C39.2209 33.0335 39.1581 33.0459 39.0945 33.046Z" fill="#4D5999"></path><path id="Vector_7" d="M33.3869 31.0994H30.6989C30.5705 31.0994 30.4474 31.0491 30.3566 30.9595C30.2659 30.87 30.2148 30.7486 30.2148 30.622C30.2148 30.4953 30.2659 30.3739 30.3566 30.2844C30.4474 30.1948 30.5705 30.1445 30.6989 30.1445H33.3869C33.5153 30.1445 33.6384 30.1948 33.7292 30.2844C33.82 30.3739 33.871 30.4953 33.871 30.622C33.871 30.7486 33.82 30.87 33.7292 30.9595C33.6384 31.0491 33.5153 31.0994 33.3869 31.0994Z" fill="#4D5999"></path><path id="Vector_8" d="M33.3897 33.0457H23.9411C23.8127 33.0457 23.6896 32.9954 23.5988 32.9058C23.508 32.8163 23.457 32.6949 23.457 32.5683C23.457 32.4416 23.508 32.3202 23.5988 32.2307C23.6896 32.1411 23.8127 32.0908 23.9411 32.0908H33.3897C33.5181 32.0908 33.6412 32.1411 33.732 32.2307C33.8228 32.3202 33.8738 32.4416 33.8738 32.5683C33.8738 32.6949 33.8228 32.8163 33.732 32.9058C33.6412 32.9954 33.5181 33.0457 33.3897 33.0457Z" fill="#4D5999"></path><path id="Vector_9" d="M49.226 14.1266C49.8372 10.4051 47.2811 6.9007 43.5167 6.29937C39.7523 5.69801 36.2054 8.22742 35.5941 11.949C34.9832 15.6705 37.5394 19.1748 41.3038 19.7762C45.0682 20.3775 48.6151 17.8481 49.226 14.1266Z" fill="#70718F"></path><path id="Vector_10" d="M42.4153 20.3448C44.1702 20.3495 45.87 19.7396 47.2118 18.6239C48.5533 17.5082 49.45 15.959 49.7419 14.2521C50.0338 12.5453 49.7021 10.7917 48.8061 9.30351C47.9097 7.81533 46.5069 6.68921 44.8476 6.1257C43.1883 5.56218 41.3802 5.59781 39.7447 6.22631C38.1096 6.85478 36.7536 8.03525 35.9186 9.5576C35.0832 11.0799 34.8228 12.8452 35.1835 14.5391C35.5445 16.2331 36.5034 17.7457 37.8891 18.8077L28.2872 26.1007C28.2029 26.1647 28.0994 26.1994 27.993 26.1994C27.8866 26.1994 27.7832 26.1647 27.6988 26.1007L9.54571 12.3126C9.59921 11.9762 9.77251 11.6697 10.0345 11.4479C10.2964 11.2261 10.6299 11.1036 10.9751 11.1024H33.1278C33.2562 11.1024 33.3793 11.0521 33.4701 10.9625C33.5609 10.873 33.6118 10.7516 33.6118 10.625C33.6118 10.4983 33.5609 10.3769 33.4701 10.2874C33.3793 10.1978 33.2562 10.1475 33.1278 10.1475H10.977C10.3361 10.149 9.72202 10.4012 9.26936 10.8487C8.8167 11.2963 8.5625 11.9026 8.5625 12.5347V33.6779C8.5625 34.31 8.8167 34.9164 9.26936 35.3639C9.72202 35.8114 10.3361 36.0636 10.977 36.0651H45.0097C45.6503 36.0636 46.2645 35.8114 46.717 35.3639C47.1695 34.9164 47.4238 34.31 47.4238 33.6779V21.0577C47.4238 20.9314 47.3732 20.8102 47.2825 20.7209C47.1921 20.6316 47.0691 20.5814 46.9412 20.5814C46.8129 20.5814 46.6902 20.6316 46.5999 20.7209C46.5091 20.8102 46.4582 20.9314 46.4582 21.0577V32.7074L33.8151 23.1053L38.7349 19.3685C39.8533 20.008 41.123 20.3445 42.4153 20.3436V20.3448ZM22.1722 23.1065L9.52909 32.7086V13.5044L22.1722 23.1065ZM46.4389 33.8985C46.3857 34.2353 46.2128 34.5424 45.9507 34.7646C45.689 34.9867 45.3551 35.1093 45.0097 35.1102H10.977C10.6315 35.1093 10.2977 34.9867 10.0356 34.7646C9.77358 34.5424 9.60051 34.2353 9.54764 33.8985L22.9645 23.7081L27.1109 26.8574C27.3639 27.0494 27.6742 27.1535 27.9934 27.1535C28.3127 27.1535 28.6229 27.0494 28.876 26.8574L33.0223 23.7078L46.4389 33.8985ZM35.9911 13.0377C35.9944 11.7852 36.3736 10.5616 37.0815 9.52171C37.7894 8.48179 38.7937 7.67209 39.9678 7.19491C41.1419 6.71773 42.4332 6.59446 43.6783 6.84072C44.9234 7.08697 46.0663 7.69169 46.9635 8.5784C47.8602 9.46518 48.4707 10.5942 48.7172 11.8229C48.9637 13.0516 48.8355 14.3248 48.3488 15.4816C47.8625 16.6385 47.039 17.6272 45.9827 18.3227C44.9268 19.0183 43.6854 19.3895 42.4153 19.3895C40.7103 19.3855 39.0759 18.7145 37.8716 17.5237C36.6674 16.3329 35.9911 14.7196 35.9911 13.0377Z" fill="#4D5999"></path><path id="Vector_11" d="M44.0415 14.7556C43.8478 14.7555 43.6563 14.7955 43.479 14.8729C43.3016 14.9502 43.1429 15.0633 43.0127 15.2049L40.7225 13.8054C40.8489 13.4855 40.8489 13.1303 40.7225 12.8105L43.0127 11.4113C43.2462 11.6643 43.5671 11.822 43.9125 11.8537C44.2579 11.8855 44.6025 11.7887 44.8792 11.5826C45.1561 11.3765 45.345 11.0758 45.4082 10.7396C45.4722 10.4033 45.406 10.0558 45.2231 9.76507C45.0405 9.47433 44.7542 9.26148 44.4207 9.16819C44.0869 9.07493 43.7299 9.10797 43.4199 9.26083C43.1094 9.41372 42.8681 9.67542 42.7436 9.99457C42.6186 10.3137 42.6194 10.6674 42.7454 10.986L40.4552 12.3852C40.2659 12.1803 40.0187 12.0366 39.7458 11.9729C39.4725 11.9093 39.1862 11.9286 38.9245 12.0284C38.6627 12.1283 38.4374 12.3039 38.2787 12.5323C38.1199 12.7607 38.0352 13.031 38.0352 13.3079C38.0352 13.5848 38.1199 13.8552 38.2787 14.0835C38.4374 14.3119 38.6627 14.4875 38.9245 14.5874C39.1862 14.6872 39.4725 14.7065 39.7458 14.6428C40.0187 14.5792 40.2659 14.4355 40.4552 14.2306L42.7451 15.6297C42.6376 15.9029 42.622 16.2028 42.7001 16.4854C42.7781 16.7681 42.9458 17.0187 43.1789 17.2006C43.4117 17.3824 43.6972 17.4859 43.9943 17.496C44.291 17.506 44.5836 17.4221 44.8282 17.2565C45.0732 17.0908 45.2584 16.8522 45.3558 16.5754C45.4532 16.2988 45.4584 15.9985 45.3703 15.7187C45.2826 15.4389 45.106 15.1942 44.8665 15.0205C44.6275 14.8468 44.3382 14.7532 44.0411 14.7534L44.0415 14.7556ZM43.1577 10.4881C43.1577 10.3156 43.2094 10.1471 43.3065 10.0037C43.4039 9.86033 43.5418 9.7486 43.7032 9.68259C43.8649 9.61662 44.0426 9.59936 44.214 9.63298C44.3854 9.66664 44.5431 9.74966 44.6669 9.87159C44.7903 9.99351 44.8743 10.1489 44.9085 10.318C44.9427 10.4871 44.9253 10.6624 44.8583 10.8217C44.7914 10.981 44.678 11.1172 44.5326 11.213C44.3873 11.3087 44.2162 11.3598 44.0415 11.3598C43.8073 11.3595 43.5827 11.2676 43.4169 11.1042C43.2514 10.9408 43.1581 10.7192 43.1577 10.4881ZM39.426 14.1795C39.2513 14.1795 39.0806 14.1284 38.9353 14.0326C38.7899 13.9368 38.6765 13.8006 38.6096 13.6413C38.5427 13.482 38.5252 13.3067 38.5594 13.1376C38.5936 12.9685 38.6776 12.8132 38.8011 12.6913C38.9249 12.5693 39.0825 12.4863 39.2539 12.4527C39.4253 12.419 39.6026 12.4363 39.7644 12.5023C39.9257 12.5682 40.064 12.68 40.1611 12.8233C40.2581 12.9667 40.3102 13.1353 40.3102 13.3077C40.3098 13.5388 40.2168 13.7604 40.051 13.9238C39.8852 14.0873 39.6606 14.1792 39.426 14.1795ZM43.1577 16.1274C43.1577 15.9549 43.2094 15.7864 43.3065 15.643C43.4039 15.4997 43.5418 15.3879 43.7032 15.3219C43.8649 15.2559 44.0426 15.2387 44.214 15.2723C44.3854 15.3059 44.5431 15.3889 44.6669 15.5109C44.7903 15.6328 44.8743 15.7882 44.9085 15.9573C44.9427 16.1264 44.9253 16.3017 44.8583 16.461C44.7914 16.6203 44.678 16.7564 44.5326 16.8522C44.3873 16.9481 44.2162 16.9992 44.0415 16.9992C43.8073 16.9989 43.5827 16.9069 43.4169 16.7435C43.2514 16.5801 43.1581 16.3585 43.1577 16.1274Z" fill="white" stroke="white" stroke-width="0.5" stroke-linecap="round" stroke-linejoin="round"></path><path id="Vector_12" d="M35.2212 6.16921C34.8965 6.16957 34.5817 6.0589 34.3305 5.85596C34.0793 5.65305 33.9072 5.37048 33.8436 5.05642C33.78 4.74234 33.8288 4.41627 33.9817 4.13369C34.1346 3.85115 34.382 3.62965 34.682 3.50695C34.9819 3.38426 35.3157 3.36796 35.6265 3.46085C35.9373 3.55374 36.2057 3.75006 36.3861 4.01635C36.5664 4.28261 36.6478 4.60238 36.6158 4.92109C36.5839 5.23981 36.4411 5.53776 36.2113 5.76416C36.0816 5.89279 35.9273 5.99479 35.7574 6.06433C35.5875 6.13384 35.4053 6.16946 35.2212 6.16921ZM35.2212 4.35587C35.1206 4.35612 35.0231 4.39084 34.9454 4.45401C34.8678 4.51721 34.8147 4.60497 34.7953 4.70241C34.7758 4.79982 34.7913 4.90091 34.8388 4.98841C34.8865 5.07588 34.9634 5.1444 35.0564 5.18225C35.1495 5.22013 35.2528 5.22502 35.3491 5.19609C35.4458 5.16713 35.5287 5.10619 35.5845 5.02357C35.6406 4.94098 35.6655 4.84182 35.6559 4.74299C35.6458 4.6442 35.6016 4.55182 35.5302 4.48158C35.4897 4.4414 35.4417 4.40956 35.3885 4.38789C35.3354 4.36625 35.2785 4.35521 35.2212 4.35547V4.35587Z" fill="#70718F"></path><path id="Vector_13" d="M24.3736 42.2308C24.0489 42.2312 23.7341 42.1204 23.4829 41.9175C23.2316 41.7146 23.0595 41.4319 22.996 41.1183C22.9323 40.8039 22.9811 40.4782 23.134 40.1952C23.2869 39.9128 23.5344 39.6914 23.8343 39.5686C24.1343 39.4458 24.4681 39.4294 24.7788 39.5223C25.0895 39.6152 25.358 39.8116 25.5385 40.0779C25.7189 40.3442 25.8001 40.664 25.7682 40.9828C25.7364 41.3011 25.5934 41.5991 25.3637 41.8257C25.2339 41.9543 25.0796 42.0563 24.9097 42.1259C24.7398 42.1951 24.5575 42.2308 24.3736 42.2308ZM24.3736 40.4177C24.2729 40.4177 24.1754 40.4527 24.0978 40.5157C24.0201 40.5791 23.9671 40.6666 23.9476 40.7638C23.9282 40.8615 23.9436 40.9624 23.9912 41.0501C24.0388 41.1372 24.1157 41.2057 24.2088 41.244C24.3019 41.2818 24.4054 41.2866 24.5017 41.2578C24.598 41.2286 24.6811 41.1678 24.737 41.0851C24.7928 41.0024 24.818 40.9033 24.8081 40.8046C24.7982 40.7055 24.7538 40.6137 24.6826 40.5431C24.6422 40.503 24.594 40.4709 24.541 40.4498C24.4879 40.428 24.431 40.4174 24.3736 40.4177Z" fill="#70718F"></path><path id="Vector_14" d="M31.7404 7.39811C31.6769 7.39818 31.6141 7.38587 31.5555 7.36186C31.4968 7.33789 31.4436 7.30266 31.3989 7.25826L30.8229 6.68859L30.2469 7.25826C30.2019 7.30248 30.1486 7.33753 30.0899 7.36146C30.0312 7.38536 29.9683 7.39763 29.9048 7.39756C29.8413 7.39749 29.7785 7.3851 29.7198 7.36106C29.6612 7.33702 29.608 7.30183 29.5631 7.25749C29.5182 7.21316 29.4827 7.16056 29.4585 7.10267C29.4342 7.04479 29.4218 6.98275 29.4219 6.92013C29.4219 6.85751 29.4345 6.79551 29.4589 6.73766C29.4832 6.67984 29.5189 6.62728 29.5639 6.58305L30.4814 5.6758C30.5261 5.63154 30.5793 5.59642 30.6379 5.57245C30.6965 5.54848 30.7593 5.53613 30.8227 5.53613C30.8861 5.53613 30.9489 5.54848 31.0074 5.57245C31.066 5.59642 31.1192 5.63154 31.164 5.6758L32.0815 6.58305C32.1491 6.64979 32.1952 6.73478 32.2139 6.82734C32.2326 6.91987 32.2231 7.01579 32.1866 7.10304C32.1501 7.19021 32.0881 7.26478 32.0086 7.31731C31.9291 7.36984 31.836 7.39796 31.7404 7.39811Z" fill="#70718F"></path><path id="Vector_15" d="M45.7361 40.4175C45.6725 40.4179 45.6097 40.4051 45.5513 40.3815C45.4926 40.3574 45.4394 40.3221 45.3944 40.2776L44.8185 39.7079L44.2422 40.2776C44.1976 40.3221 44.1441 40.3571 44.0853 40.3811C44.027 40.4048 43.9641 40.4172 43.9006 40.4172C43.8374 40.4168 43.7741 40.4044 43.7154 40.3804C43.6567 40.3563 43.6039 40.3214 43.5589 40.2765C43.5143 40.2325 43.4786 40.18 43.4544 40.1221C43.4302 40.0642 43.418 40.0022 43.418 39.9396C43.418 39.8769 43.4306 39.815 43.4548 39.7571C43.4793 39.6992 43.515 39.6467 43.5596 39.6026L44.4772 38.6952C44.5222 38.6511 44.5754 38.6158 44.6341 38.5921C44.6925 38.568 44.7553 38.5557 44.8185 38.5557C44.8821 38.5557 44.9449 38.568 45.0033 38.5921C45.062 38.6158 45.1152 38.6511 45.1598 38.6952L46.0774 39.6026C46.1451 39.6693 46.1912 39.7542 46.2101 39.8467C46.2287 39.9392 46.2191 40.0354 46.1826 40.1225C46.1462 40.2099 46.0841 40.2846 46.0045 40.3367C45.925 40.3895 45.8317 40.4175 45.7361 40.4175Z" fill="#70718F"></path><path id="Vector_16" d="M20.5451 40.8707C20.4816 40.871 20.4188 40.8586 20.3601 40.8346C20.3015 40.8109 20.2483 40.7756 20.2036 40.7311L19.6276 40.1614L19.0516 40.7311C19.0067 40.7756 18.9533 40.8105 18.8946 40.8342C18.8359 40.8583 18.773 40.8703 18.7095 40.8703C18.6461 40.8703 18.5832 40.8579 18.5245 40.8339C18.4659 40.8102 18.4126 40.7748 18.3678 40.7304C18.323 40.686 18.2874 40.6331 18.2631 40.5756C18.2389 40.5177 18.2265 40.4557 18.2266 40.3931C18.2266 40.3304 18.2392 40.2681 18.2636 40.2106C18.2879 40.1526 18.3236 40.1002 18.3686 40.0561L19.2861 39.1487C19.3309 39.1042 19.3841 39.0693 19.4427 39.0452C19.5013 39.0212 19.5642 39.0088 19.6276 39.0088C19.6911 39.0088 19.7539 39.0212 19.8125 39.0452C19.8711 39.0693 19.9243 39.1042 19.9691 39.1487L20.8866 40.0561C20.9543 40.1228 21.0003 40.2077 21.019 40.3002C21.0378 40.3927 21.0283 40.4889 20.9917 40.5759C20.9552 40.663 20.8932 40.7377 20.8137 40.7901C20.7343 40.843 20.6408 40.8707 20.5451 40.8707Z" fill="#70718F"></path><path id="Vector_17" d="M9.00247 9.04518C8.93897 9.04525 8.8761 9.0329 8.81747 9.00882C8.75883 8.98474 8.70567 8.94944 8.66094 8.90493L7.59857 7.85291C7.50793 7.76307 7.45703 7.64147 7.45703 7.51474C7.45703 7.388 7.50793 7.26641 7.59857 7.17657L8.66094 6.12455C8.7057 6.08011 8.75891 6.04485 8.8175 6.0208C8.87613 5.99676 8.93897 5.98438 9.00247 5.98438C9.06594 5.98438 9.12881 5.99676 9.18744 6.0208C9.24603 6.04485 9.29924 6.08011 9.34396 6.12455L10.4064 7.17657C10.4969 7.26644 10.5477 7.38804 10.5477 7.51474C10.5477 7.64144 10.4969 7.76304 10.4064 7.85291L9.34396 8.90493C9.29927 8.94944 9.24607 8.98471 9.18748 9.00882C9.12884 9.03286 9.06594 9.04525 9.00247 9.04518ZM8.62309 7.51456L9.00247 7.89024L9.38185 7.51456L9.00247 7.13887L8.62309 7.51456Z" fill="#70718F"></path></g></g></g></g><defs><linearGradient id="paint0_linear_7081_17418" x1="22.5317" y1="34.4072" x2="18.2395" y2="20.1613" gradientUnits="userSpaceOnUse"><stop stop-color="#E6E9FF"></stop><stop offset="1" stop-color="#E6E9FF" stop-opacity="0"></stop></linearGradient><clipPath id="clip0_7081_17418"><rect width="51" height="51" fill="white" transform="translate(0.960938)"></rect></clipPath></defs></svg>