<svg width="217" height="92" viewBox="0 0 217 92" fill="none" xmlns="http://www.w3.org/2000/svg" class="mb-4"><path fill-rule="evenodd" clip-rule="evenodd" d="M46.5 84H137.5C138.015 84 138.517 83.9444 139 83.8389C139.483 83.9444 139.985 84 140.5 84H192.5C196.366 84 199.5 80.866 199.5 77C199.5 73.134 196.366 70 192.5 70H186.5C182.634 70 179.5 66.866 179.5 63C179.5 59.134 182.634 56 186.5 56H205.5C209.366 56 212.5 52.866 212.5 49C212.5 45.134 209.366 42 205.5 42H183.5C187.366 42 190.5 38.866 190.5 35C190.5 31.134 187.366 28 183.5 28H119.5C123.366 28 126.5 24.866 126.5 21C126.5 17.134 123.366 14 119.5 14H62.5C58.634 14 55.5 17.134 55.5 21C55.5 24.866 58.634 28 62.5 28H22.5C18.634 28 15.5 31.134 15.5 35C15.5 38.866 18.634 42 22.5 42H47.5C51.366 42 54.5 45.134 54.5 49C54.5 52.866 51.366 56 47.5 56H7.5C3.63401 56 0.5 59.134 0.5 63C0.5 66.866 3.63401 70 7.5 70H46.5C42.634 70 39.5 73.134 39.5 77C39.5 80.866 42.634 84 46.5 84ZM209.5 84C213.366 84 216.5 80.866 216.5 77C216.5 73.134 213.366 70 209.5 70C205.634 70 202.5 73.134 202.5 77C202.5 80.866 205.634 84 209.5 84Z" fill="#F3F7FF"></path><path fill-rule="evenodd" clip-rule="evenodd" d="M96.6186 62.3066C96.5404 62.8599 96.5 63.4252 96.5 64C96.5 70.6274 101.873 76 108.5 76C115.127 76 120.5 70.6274 120.5 64C120.5 63.4252 120.46 62.8599 120.381 62.3066H149.5V89C149.5 90.6569 148.157 92 146.5 92H70.5C68.8431 92 67.5 90.6569 67.5 89V62.3066H96.6186Z" fill="white"></path><path fill-rule="evenodd" clip-rule="evenodd" d="M121.5 62C121.5 69.1797 115.68 75 108.5 75C101.32 75 95.5 69.1797 95.5 62C95.5 61.7674 95.5061 61.5362 95.5182 61.3066H67.5L77.0604 33.0389C77.4726 31.8202 78.6159 31 79.9023 31H137.098C138.384 31 139.527 31.8202 139.94 33.0389L149.5 61.3066H121.482C121.494 61.5362 121.5 61.7674 121.5 62Z" fill="white"></path><path fill-rule="evenodd" clip-rule="evenodd" d="M119.598 62.9545C119.598 68.5025 114.629 74 108.5 74C102.371 74 97.4024 68.5025 97.4024 62.9545C97.4024 62.7748 97.4077 61.5962 97.418 61.4188H76.5L84.6614 41.5755C85.0132 40.6338 85.9891 40 87.0873 40H129.913C131.011 40 131.987 40.6338 132.339 41.5755L140.5 61.4188H119.582C119.592 61.5962 119.598 62.7748 119.598 62.9545Z" fill="#E8F0FE"></path><path fill-rule="evenodd" clip-rule="evenodd" d="M68.75 61.5123V88C68.75 88.9665 69.5335 89.75 70.5 89.75H146.5C147.466 89.75 148.25 88.9665 148.25 88V61.5123L138.755 33.4393C138.515 32.7285 137.848 32.25 137.098 32.25H79.9023C79.1519 32.25 78.485 32.7285 78.2446 33.4393L68.75 61.5123Z" stroke="#4D5999" stroke-width="2.5"></path><path d="M81.5005 61C85.4371 61 89.6854 61 94.2454 61C96.1217 61 96.1217 62.3186 96.1217 63C96.1217 69.6274 101.618 75 108.398 75C115.178 75 120.674 69.6274 120.674 63C120.674 62.3186 120.674 61 122.55 61H147.5M74.0742 61H76.5005H74.0742Z" stroke="#4D5999" stroke-width="2.5" stroke-linecap="round" stroke-linejoin="round"></path><path d="M133.6 8.30273L122.5 20.7559M107.6 4V20.7559V4ZM81.5 8.30273L92.5996 20.7559L81.5 8.30273Z" stroke="#70718F" stroke-width="2.5" stroke-linecap="round" stroke-linejoin="round"></path></svg>