<svg width="52" height="51" viewBox="0 0 52 51" fill="none" xmlns="http://www.w3.org/2000/svg"><g id="otp-icon.e189265da4da0c5156937d7a7130cee2" clip-path="url(#clip0_7081_17392)"><g id="Clip path group"><mask id="mask0_7081_17392" maskUnits="userSpaceOnUse" x="-3" y="0" width="56" height="51" style="mask-type: luminance;"><g id="clip0_5310_13158"><path id="Vector" d="M52.4231 0H-2.5V51H52.4231V0Z" fill="white"></path></g></mask><g mask="url(#mask0_7081_17392)"><g id="Group"><path id="Vector_2" d="M39.6709 25.9487C39.9907 25.2281 40.2689 24.4874 40.5037 23.7324C41.1557 21.6763 41.4715 19.5359 41.4327 17.4339C41.394 15.3319 41.0015 13.3096 40.2777 11.4827C39.554 9.65599 38.5134 8.06073 37.2151 6.78826C35.917 5.51586 34.3871 4.5914 32.7129 4.06781C31.0388 3.54421 29.2533 3.4318 27.459 3.73702C25.6646 4.04224 23.8965 4.75909 22.2561 5.84649C20.6157 6.93388 19.1352 8.37042 17.8995 10.0739C16.6637 11.7773 15.697 13.714 15.0547 15.7732C14.8279 16.4855 14.6404 17.2095 14.4933 17.9401C14.2018 19.3707 13.5787 20.7215 12.6973 21.8339C11.8159 22.9464 10.7128 23.7743 9.51745 24.2204C6.09629 25.5002 3.58585 27.7184 2.63715 30.701C0.437871 37.6151 7.46104 46.0227 18.3242 49.478C29.1873 52.9334 39.7766 50.1296 41.976 43.2152C42.9248 40.2324 42.1571 36.9718 40.105 33.9506C39.3871 32.896 38.9649 31.5829 38.8881 30.1656C38.8113 28.7484 39.0833 27.2859 39.6718 25.9498L39.6709 25.9487Z" fill="url(#paint0_linear_7081_17392)"></path><path id="Vector_3" d="M45.4899 35.621C45.4193 35.621 45.3495 35.6071 45.2844 35.5804C45.2193 35.5537 45.1601 35.514 45.1107 35.4646L43.9305 34.291C43.8299 34.1908 43.7734 34.0553 43.7734 33.914C43.7734 33.7727 43.8299 33.6369 43.9305 33.5367L45.1107 32.3634C45.1604 32.3136 45.2193 32.2743 45.2844 32.2476C45.3495 32.2209 45.4193 32.207 45.4899 32.207C45.5603 32.207 45.6303 32.2209 45.6954 32.2476C45.7605 32.2743 45.8195 32.3136 45.8692 32.3634L47.0491 33.5367C47.1497 33.6369 47.2061 33.7727 47.2061 33.914C47.2061 34.0553 47.1497 34.1908 47.0491 34.291L45.8692 35.4646C45.8195 35.514 45.7605 35.5537 45.6954 35.5804C45.6303 35.6071 45.5606 35.621 45.4899 35.621ZM45.0685 33.9137L45.4899 34.3327L45.9114 33.9137L45.4899 33.4946L45.0685 33.9137Z" fill="#70718F"></path><path id="Vector_4" d="M43.2477 6.87862C43.1774 6.87871 43.1074 6.86492 43.0422 6.83806C42.9771 6.81124 42.9182 6.77186 42.8685 6.72221L41.6886 5.54878C41.588 5.44859 41.5312 5.31298 41.5312 5.17159C41.5312 5.03024 41.588 4.89463 41.6886 4.79441L42.8685 3.62098C42.9182 3.57151 42.9775 3.53225 43.0422 3.50543C43.1074 3.47864 43.1771 3.46484 43.2477 3.46484C43.3181 3.46484 43.3878 3.47864 43.4529 3.50543C43.518 3.53225 43.577 3.57151 43.6267 3.62098L44.8069 4.79441C44.9075 4.89463 44.9639 5.03024 44.9639 5.17159C44.9639 5.31298 44.9075 5.44859 44.8069 5.54878L43.6267 6.72221C43.5773 6.77179 43.518 6.81112 43.4532 6.83797C43.3881 6.86479 43.3184 6.87862 43.2477 6.87862ZM42.8266 5.17138L43.2477 5.59044L43.6692 5.17138L43.2477 4.75235L42.8266 5.17138Z" fill="#70718F"></path><path id="Vector_5" d="M4.46641 17.7386C4.39588 17.7387 4.32605 17.7249 4.26095 17.698C4.19584 17.6712 4.13675 17.6318 4.08711 17.5822L2.87577 16.3773C2.77518 16.2771 2.71875 16.1415 2.71875 16.0001C2.71875 15.8588 2.77518 15.7232 2.87577 15.623L4.08711 14.4181C4.13678 14.3685 4.1959 14.3292 4.26098 14.3024C4.32608 14.2755 4.39591 14.2617 4.46641 14.2617C4.53692 14.2617 4.60675 14.2755 4.67182 14.3024C4.73693 14.3292 4.79605 14.3685 4.84572 14.4181L6.05702 15.623C6.15761 15.7232 6.21408 15.8588 6.21408 16.0001C6.21408 16.1415 6.15761 16.2771 6.05702 16.3773L4.84615 17.5822C4.79645 17.6319 4.7373 17.6713 4.67213 17.6981C4.60693 17.725 4.53701 17.7388 4.46641 17.7386ZM4.0133 16.0004L4.46641 16.4509L4.9191 16.0004L4.46641 15.5499L4.0133 16.0004Z" fill="#70718F"></path><path id="Vector_6" d="M43.2477 30.0748C42.9703 30.076 42.6985 29.9956 42.4674 29.8437C42.236 29.6918 42.0555 29.4754 41.9484 29.2218C41.8413 28.9682 41.8126 28.6888 41.866 28.4191C41.9194 28.1494 42.0524 27.9014 42.2483 27.7066C42.4442 27.5118 42.6939 27.379 42.966 27.325C43.2382 27.2709 43.5202 27.2981 43.7769 27.403C44.0333 27.5079 44.2527 27.6858 44.407 27.9143C44.5613 28.1428 44.6436 28.4114 44.6436 28.6863C44.6439 29.0537 44.4974 29.4062 44.2354 29.6665C43.9738 29.9268 43.6186 30.0736 43.2477 30.0748ZM43.2477 28.365C43.1835 28.3648 43.1206 28.3834 43.0672 28.4185C43.0135 28.4537 42.9719 28.5038 42.9472 28.5625C42.9225 28.6212 42.9157 28.6858 42.9281 28.7482C42.9404 28.8106 42.9713 28.868 43.0166 28.9131C43.062 28.9581 43.1197 28.9889 43.1826 29.0013C43.2456 29.0138 43.311 29.0076 43.3702 28.9833C43.4295 28.959 43.4804 28.9178 43.5162 28.8649C43.5517 28.8121 43.5708 28.7499 43.5708 28.6863C43.5705 28.6016 43.5362 28.5204 43.4757 28.4605C43.4153 28.4007 43.3332 28.3669 43.2477 28.3667V28.365Z" fill="#70718F"></path><path id="Vector_7" d="M7.28284 24.8746C7.00532 24.8758 6.7337 24.7953 6.50237 24.6435C6.27108 24.4916 6.09045 24.2752 5.98344 24.0216C5.8764 23.768 5.8478 23.4886 5.90121 23.2189C5.95462 22.9492 6.08764 22.7012 6.28345 22.5064C6.47926 22.3117 6.72904 22.1788 7.00112 22.1248C7.27321 22.0707 7.55538 22.0979 7.81189 22.2028C8.06839 22.3077 8.28768 22.4856 8.44199 22.7141C8.59627 22.9426 8.67865 23.2113 8.67865 23.4861C8.67912 23.8535 8.5324 24.206 8.27068 24.4663C8.00899 24.7266 7.65372 24.8735 7.28284 24.8746ZM7.28284 23.1648C7.21863 23.1646 7.15577 23.1832 7.10227 23.2183C7.04873 23.2535 7.00696 23.3036 6.98221 23.3623C6.95746 23.421 6.95086 23.4856 6.96323 23.548C6.97561 23.6104 7.0064 23.6678 7.0517 23.7129C7.09702 23.7579 7.15482 23.7887 7.21779 23.8012C7.28074 23.8136 7.34603 23.8074 7.40539 23.7831C7.46473 23.7588 7.51546 23.7176 7.55119 23.6648C7.58689 23.6119 7.60593 23.5497 7.60593 23.4861C7.60605 23.4011 7.57208 23.3195 7.51151 23.2592C7.45091 23.199 7.36868 23.165 7.28284 23.1648Z" fill="#70718F"></path><path id="Vector_8" opacity="0.1" d="M11.6406 44.4566C11.6396 45.045 11.8745 45.6097 12.2938 46.0263C12.713 46.4432 13.2822 46.6779 13.8762 46.6791H35.9869C36.5809 46.6779 37.1502 46.4432 37.5695 46.0263C37.9885 45.6097 38.2236 45.045 38.2224 44.4566V2.59635C38.2236 2.00804 37.9885 1.44341 37.5695 1.02666C37.1502 0.609905 36.5809 0.375148 35.9869 0.374023H13.8762C13.2822 0.375148 12.713 0.609905 12.2938 1.02666C11.8745 1.44341 11.6396 2.00804 11.6406 2.59635V44.4566Z" fill="#0000CC"></path><path id="Vector_9" d="M38.7577 3.12956V44.9897C38.7587 45.5777 38.5239 46.1424 38.1045 46.5593C37.6852 46.9759 37.1162 47.2106 36.5223 47.2118H14.4113C13.8174 47.2106 13.2482 46.9759 12.8289 46.5593C12.4097 46.1424 12.1748 45.5777 12.1758 44.9897V3.12956C12.1748 2.54124 12.4097 1.97662 12.8289 1.55986C13.2482 1.14311 13.8174 0.908351 14.4113 0.907227H36.5223C37.1162 0.908351 37.6852 1.14311 38.1045 1.55986C38.5239 1.97662 38.7587 2.54124 38.7577 3.12956Z" fill="#70718F"></path><path id="Vector_10" d="M12.1758 21.4463V44.9914C12.1748 45.5797 12.4097 46.1441 12.8289 46.561C13.2482 46.9776 13.8174 47.2123 14.4113 47.2136H36.5223C37.1163 47.2123 37.6852 46.9776 38.1046 46.561C38.5239 46.1441 38.7587 45.5797 38.7578 44.9914V21.4463H12.1758Z" fill="white"></path><path id="Vector_11" d="M32.7102 3.89595L33.6179 0.908203H17.3125L18.2192 3.89638C18.2852 4.11541 18.4207 4.30752 18.6057 4.44417C18.7907 4.58083 19.0152 4.65478 19.246 4.65499H31.6836C31.9144 4.65475 32.139 4.58073 32.3238 4.44399C32.509 4.30724 32.6444 4.11507 32.7102 3.89595Z" fill="white"></path><path id="Vector_12" d="M38.755 28.5945C38.8257 28.5943 38.8954 28.5805 38.9605 28.5536C39.0257 28.5267 39.0849 28.4874 39.1349 28.4379C39.1846 28.3883 39.2241 28.3295 39.2509 28.2649C39.2777 28.2003 39.2916 28.131 39.2913 28.0611V3.13056C39.2919 2.40127 39.0007 1.70147 38.4811 1.1847C37.9614 0.667934 37.2561 0.376389 36.5199 0.374024H33.6167C33.5009 0.373904 33.3883 0.410784 33.2958 0.47917C33.2029 0.547556 33.135 0.643792 33.1017 0.75355L32.1951 3.74173C32.1624 3.85178 32.0945 3.94831 32.0017 4.01679C31.9088 4.08524 31.7959 4.12193 31.6802 4.12125H19.2453C19.1295 4.12193 19.0166 4.08524 18.9237 4.01679C18.8308 3.94831 18.763 3.85178 18.7304 3.74173L18.0323 1.4412H29.9973C30.1402 1.4412 30.2771 1.38501 30.378 1.28498C30.4793 1.18495 30.5357 1.04929 30.5357 0.907825C30.5357 0.766364 30.4793 0.630698 30.378 0.530671C30.2771 0.430643 30.1402 0.374451 29.9973 0.374451H14.4082C13.6719 0.376813 12.9666 0.668358 12.447 1.18513C11.9274 1.7019 11.636 2.40169 11.6367 3.13099V44.9904C11.636 45.7198 11.9274 46.4197 12.447 46.9364C12.9666 47.4532 13.6719 47.7447 14.4082 47.7472H36.5199C37.2561 47.7447 37.9614 47.4532 38.4811 46.9364C39.0007 46.4197 39.2919 45.7198 39.2913 44.9904V31.688C39.2913 31.547 39.2349 31.4121 39.1343 31.3123C39.0337 31.2128 38.8973 31.1568 38.755 31.1568C38.6128 31.1568 38.4764 31.2128 38.3758 31.3123C38.2752 31.4121 38.2188 31.547 38.2188 31.688V44.9904C38.2191 45.4375 38.0404 45.8664 37.722 46.1831C37.4036 46.4999 36.9713 46.6784 36.5199 46.6799H14.4082C13.9569 46.6784 13.5247 46.4999 13.2062 46.1831C12.8877 45.8664 12.7091 45.4375 12.7094 44.9904V3.13056C12.709 2.68352 12.8876 2.25455 13.206 1.93776C13.5245 1.62097 13.9568 1.44224 14.4082 1.44077H16.9145L17.7062 4.04942C17.8038 4.37877 18.0068 4.66781 18.2846 4.87307C18.5624 5.07833 18.9 5.18869 19.2466 5.18758H31.6842C32.0307 5.18863 32.3682 5.07824 32.6459 4.87298C32.9236 4.66775 33.1267 4.37874 33.2245 4.04942L34.0162 1.44077H36.5211C36.9725 1.44224 37.4048 1.62097 37.7232 1.93776C38.0417 2.25455 38.2203 2.68352 38.22 3.13056V28.0611C38.2197 28.202 38.2759 28.3373 38.3761 28.4373C38.4764 28.5373 38.6128 28.5938 38.755 28.5945Z" fill="#4D5999"></path><path id="Vector_13" d="M20.2266 2.78043C20.227 2.67847 20.2579 2.57893 20.3154 2.49436C20.3729 2.40979 20.4544 2.344 20.5496 2.30527C20.6448 2.26654 20.7495 2.25663 20.8504 2.27678C20.9513 2.29692 21.044 2.34623 21.1166 2.41847C21.1892 2.49071 21.2386 2.58265 21.2585 2.68268C21.2785 2.7827 21.268 2.88633 21.2285 2.98048C21.189 3.07464 21.1223 3.1551 21.0367 3.21169C20.9511 3.26828 20.8504 3.29848 20.7475 3.29852C20.6789 3.29839 20.6111 3.28491 20.5478 3.25879C20.4845 3.23271 20.427 3.19449 20.3787 3.14638C20.3303 3.09826 20.2919 3.04119 20.2658 2.97839C20.2397 2.9156 20.2264 2.84833 20.2266 2.78043Z" fill="#4D5999"></path><path id="Vector_14" d="M21.9766 2.78043C21.977 2.67847 22.0079 2.57893 22.0654 2.49436C22.1229 2.40979 22.2044 2.344 22.2996 2.30527C22.3948 2.26654 22.4995 2.25663 22.6004 2.27678C22.7013 2.29692 22.7939 2.34623 22.8666 2.41847C22.9392 2.49071 22.9886 2.58265 23.0085 2.68268C23.0285 2.7827 23.018 2.88633 22.9785 2.98048C22.939 3.07464 22.8723 3.1551 22.7866 3.21169C22.7011 3.26828 22.6004 3.29848 22.4975 3.29852C22.4289 3.29839 22.3611 3.28491 22.2978 3.25879C22.2345 3.23271 22.177 3.19449 22.1287 3.14638C22.0803 3.09826 22.0419 3.04119 22.0158 2.97839C21.9897 2.9156 21.9764 2.84833 21.9766 2.78043Z" fill="#4D5999"></path><path id="Vector_15" d="M29.8178 3.29875H25.8272C25.6966 3.29497 25.5727 3.24096 25.4817 3.14815C25.3907 3.05536 25.3398 2.93109 25.3398 2.80173C25.3398 2.67236 25.3907 2.5481 25.4817 2.4553C25.5727 2.3625 25.6966 2.30847 25.8272 2.30469H29.8178C29.9483 2.30847 30.072 2.3625 30.163 2.4553C30.2541 2.5481 30.305 2.67236 30.305 2.80173C30.305 2.93109 30.2541 3.05536 30.163 3.14815C30.072 3.24096 29.9483 3.29497 29.8178 3.29875Z" fill="#4D5999"></path><path id="Vector_16" d="M19.6085 15.8525H31.3225C31.4531 15.8563 31.5771 15.9104 31.6681 16.0031C31.7588 16.096 31.8097 16.2202 31.8097 16.3496C31.8097 16.4789 31.7588 16.6032 31.6681 16.696C31.5771 16.7888 31.4531 16.8428 31.3225 16.8466H19.6085C19.4779 16.8428 19.354 16.7888 19.263 16.696C19.172 16.6032 19.1211 16.4789 19.1211 16.3496C19.1211 16.2202 19.172 16.096 19.263 16.0031C19.354 15.9104 19.4779 15.8563 19.6085 15.8525Z" fill="#E6E9FF"></path><path id="Vector_17" d="M20.7335 17.8594H30.1949C30.3255 17.8632 30.4492 17.9172 30.5402 18.01C30.6312 18.1028 30.6822 18.2271 30.6822 18.3564C30.6822 18.4858 30.6312 18.6101 30.5402 18.7028C30.4492 18.7957 30.3255 18.8497 30.1949 18.8534H20.7335C20.6029 18.8497 20.479 18.7957 20.388 18.7028C20.297 18.6101 20.2461 18.4858 20.2461 18.3564C20.2461 18.2271 20.297 18.1028 20.388 18.01C20.479 17.9172 20.6029 17.8632 20.7335 17.8594Z" fill="#E6E9FF"></path><path id="Vector_18" d="M22.8233 7.46875H28.101C28.2316 7.47253 28.3555 7.52657 28.4466 7.61935C28.5376 7.71217 28.5885 7.83644 28.5885 7.96578C28.5885 8.09516 28.5376 8.21943 28.4466 8.31222C28.3555 8.40503 28.2316 8.45904 28.101 8.46282H22.8233C22.6928 8.45904 22.5688 8.40503 22.4778 8.31222C22.3868 8.21943 22.3359 8.09516 22.3359 7.96578C22.3359 7.83644 22.3868 7.71217 22.4778 7.61935C22.5688 7.52657 22.6928 7.47253 22.8233 7.46875Z" fill="#E6E9FF"></path><path id="Vector_19" d="M34.4 23.1845C35.3652 23.1845 36.1477 22.4063 36.1477 21.4463C36.1477 20.4862 35.3652 19.708 34.4 19.708C33.4348 19.708 32.6523 20.4862 32.6523 21.4463C32.6523 22.4063 33.4348 23.1845 34.4 23.1845Z" fill="white"></path><path id="Vector_20" d="M34.4 23.1845C35.3652 23.1845 36.1477 22.4063 36.1477 21.4463C36.1477 20.4862 35.3652 19.708 34.4 19.708C33.4348 19.708 32.6523 20.4862 32.6523 21.4463C32.6523 22.4063 33.4348 23.1845 34.4 23.1845Z" fill="white" stroke="#4D5999" stroke-miterlimit="10" stroke-linecap="round" stroke-linejoin="round"></path><path id="Vector_21" d="M23.5221 12.1485C23.5263 12.4317 23.4868 12.7139 23.405 12.9853C23.3352 13.2163 23.2162 13.4297 23.0561 13.6113C22.8987 13.7848 22.7023 13.9191 22.4828 14.0036C22.2305 14.098 21.9622 14.1439 21.6925 14.1387C21.4303 14.1437 21.1692 14.1049 20.9201 14.024C20.7104 13.954 20.5214 13.8337 20.37 13.6738C20.2151 13.5021 20.1022 13.2973 20.0401 13.0754C19.9618 12.7955 19.9248 12.5059 19.9302 12.2156C19.9258 11.9375 19.9649 11.6604 20.0461 11.3941C20.1163 11.1651 20.2353 10.9537 20.3949 10.774C20.5528 10.6012 20.7491 10.4669 20.9682 10.3817C21.2215 10.2866 21.4911 10.2408 21.762 10.2466C22.0198 10.2419 22.2766 10.2798 22.5219 10.3588C22.7319 10.428 22.9214 10.5478 23.0733 10.7073C23.2287 10.878 23.343 11.0815 23.4075 11.3023C23.4883 11.5771 23.5269 11.8623 23.5221 12.1485ZM22.7124 12.1909C22.714 12.0093 22.6982 11.8278 22.6652 11.6491C22.6395 11.5016 22.5851 11.3604 22.5051 11.2334C22.4311 11.1192 22.3274 11.0269 22.2048 10.9661C22.058 10.8986 21.8972 10.8662 21.7354 10.8718C21.5705 10.8661 21.4068 10.9027 21.2604 10.978C21.1359 11.0463 21.0302 11.1436 20.9523 11.2615C20.8708 11.3877 20.8146 11.5282 20.7867 11.6754C20.7537 11.8404 20.7374 12.0083 20.7382 12.1765C20.7365 12.3617 20.7521 12.5467 20.7849 12.729C20.8105 12.8776 20.8642 13.0201 20.9433 13.1489C21.0163 13.2636 21.1203 13.3557 21.2436 13.4145C21.3919 13.4802 21.5533 13.5114 21.7156 13.5059C21.8804 13.5116 22.0438 13.4756 22.1906 13.4014C22.3158 13.3335 22.4217 13.2356 22.4987 13.1166C22.5802 12.9883 22.6364 12.8458 22.6644 12.6967C22.6972 12.5294 22.7132 12.3593 22.7124 12.1888V12.1909ZM30.6044 11.454C30.6081 11.6455 30.5741 11.8358 30.505 12.0146C30.4417 12.1722 30.3424 12.313 30.2143 12.4255C30.0783 12.5422 29.919 12.6291 29.7466 12.6805C29.5349 12.7424 29.3149 12.7718 29.094 12.7677H28.7752V13.967C28.7752 13.9861 28.7688 14.0046 28.7564 14.0193C28.7394 14.0375 28.7175 14.0506 28.6932 14.0571C28.6552 14.0687 28.6157 14.0765 28.5762 14.0805C28.5139 14.0869 28.4516 14.0897 28.3889 14.089C28.3271 14.0897 28.2652 14.0868 28.2037 14.0805C28.1634 14.0766 28.1236 14.0688 28.0848 14.0571C28.0609 14.0509 28.0393 14.0378 28.023 14.0193C28.0115 14.0043 28.0053 13.9859 28.0054 13.967V10.5866C28.0025 10.5494 28.0074 10.512 28.0197 10.4768C28.032 10.4415 28.0516 10.4092 28.0771 10.3817C28.1025 10.3585 28.1323 10.3405 28.1648 10.3288C28.1973 10.317 28.2318 10.3118 28.2663 10.3133H29.1615C29.2513 10.3133 29.3371 10.3167 29.4189 10.3235C29.5167 10.3324 29.6142 10.3466 29.7108 10.366C29.8305 10.3909 29.9459 10.4326 30.0539 10.4897C30.1665 10.5469 30.2674 10.6243 30.3516 10.7179C30.4353 10.8121 30.4991 10.9218 30.5396 11.0405C30.5843 11.1738 30.6062 11.3136 30.6044 11.454ZM29.7978 11.5093C29.8021 11.3966 29.778 11.2847 29.7274 11.1837C29.6883 11.1067 29.629 11.0416 29.5559 10.995C29.4902 10.9554 29.417 10.9292 29.3411 10.9181C29.264 10.9073 29.1862 10.9018 29.1082 10.9019H28.7752V12.1769H29.1214C29.227 12.1799 29.3319 12.1632 29.4309 12.1276C29.509 12.0982 29.5787 12.0508 29.6346 11.9895C29.6892 11.9276 29.7299 11.8553 29.7549 11.777C29.7833 11.6906 29.7978 11.6002 29.7978 11.5093ZM27.0226 10.6261C27.0231 10.6741 27.0207 10.7221 27.0153 10.7698C27.0121 10.8025 27.0048 10.8348 26.9935 10.8658C26.9861 10.8865 26.9736 10.9049 26.957 10.9194C26.9434 10.9306 26.9262 10.9368 26.9085 10.9368H25.9581V13.967C25.9582 13.9861 25.9515 14.0046 25.9392 14.0193C25.9222 14.0375 25.9003 14.0506 25.8761 14.0571C25.8374 14.0688 25.7976 14.0766 25.7573 14.0805C25.6954 14.087 25.6332 14.09 25.571 14.0894C25.5087 14.09 25.4464 14.087 25.3844 14.0805C25.3442 14.0766 25.3046 14.0687 25.266 14.0571C25.2418 14.0506 25.2199 14.0375 25.2029 14.0193C25.1904 14.0047 25.1835 13.9862 25.1836 13.967V10.9368H24.2332C24.2149 10.9373 24.1972 10.9311 24.1834 10.9194C24.1675 10.9045 24.1555 10.8862 24.1482 10.8658C24.1369 10.8348 24.1295 10.8025 24.1263 10.7698C24.121 10.7221 24.1186 10.6741 24.119 10.6261C24.1185 10.5766 24.121 10.5271 24.1263 10.4778C24.1294 10.4446 24.1368 10.4118 24.1482 10.3804C24.1552 10.3603 24.1673 10.3423 24.1834 10.3282C24.1976 10.3173 24.2152 10.3116 24.2332 10.312H26.9085C26.926 10.312 26.9431 10.3177 26.957 10.3282C26.9738 10.3419 26.9864 10.36 26.9935 10.3804C27.0049 10.4118 27.0122 10.4446 27.0153 10.4778C27.0207 10.5271 27.0231 10.5766 27.0226 10.6261Z" fill="white"></path><path id="Vector_22" d="M33.8804 31.4467C33.8598 31.4396 33.8422 31.4252 33.832 31.4058C33.8215 31.3868 33.819 31.3644 33.8249 31.3432L33.9536 30.5269L33.3056 31.0442C33.2895 31.0574 33.2692 31.0648 33.2482 31.0648C33.2272 31.0648 33.2072 31.0574 33.1911 31.0442C33.1235 30.9868 33.068 30.917 33.0276 30.8384C32.9782 30.7674 32.9449 30.6864 32.9301 30.6012C32.9264 30.5803 32.9304 30.5589 32.9412 30.5406C32.952 30.5223 32.9693 30.5084 32.9893 30.5014L33.766 30.2039L32.9893 29.9064C32.9693 29.8993 32.952 29.8854 32.9412 29.8672C32.9304 29.8489 32.9264 29.8274 32.9301 29.8065C32.9446 29.7205 32.9779 29.6387 33.0276 29.5668C33.0652 29.4857 33.1211 29.4142 33.1911 29.3577C33.2072 29.3437 33.2281 29.3363 33.2497 29.3369C33.2713 29.3375 33.292 29.3462 33.3074 29.3611L33.9548 29.8779L33.8261 29.0619C33.8206 29.0411 33.8233 29.0191 33.8338 29.0003C33.844 28.9814 33.8613 28.9671 33.882 28.9603C34.0517 28.9089 34.2331 28.9089 34.4028 28.9603C34.4235 28.9668 34.4411 28.9809 34.4519 28.9998C34.4624 29.0187 34.4655 29.0409 34.4602 29.0619L34.3281 29.8779L34.9773 29.3611C34.9931 29.3465 35.0141 29.3384 35.0357 29.3384C35.0573 29.3384 35.0782 29.3465 35.094 29.3611C35.1606 29.4189 35.2152 29.4887 35.2554 29.5668C35.3057 29.6383 35.3402 29.7195 35.3563 29.8052C35.3596 29.8263 35.3553 29.8479 35.3442 29.8662C35.3331 29.8845 35.3158 29.8983 35.2952 29.9051L34.5207 30.2026L35.2952 30.5001C35.3158 30.5068 35.3331 30.5206 35.3442 30.5389C35.3556 30.5572 35.3596 30.5789 35.3563 30.6C35.3396 30.686 35.3053 30.7677 35.2554 30.8402C35.2174 30.9186 35.1628 30.9883 35.0952 31.0442C35.0782 31.0571 35.0576 31.0639 35.0363 31.0639C35.015 31.0639 34.9943 31.0571 34.9773 31.0442L34.3269 30.5269L34.459 31.3441C34.4642 31.3653 34.4611 31.3877 34.4503 31.4068C34.4398 31.4258 34.4223 31.4402 34.4016 31.4473C34.2313 31.4949 34.0508 31.4949 33.8804 31.4473V31.4467ZM27.8158 31.4467C27.7954 31.439 27.7785 31.4243 27.7683 31.4052C27.7581 31.3862 27.7553 31.3644 27.7605 31.3432L27.8926 30.5269L27.2426 31.0442C27.2266 31.0574 27.2063 31.0648 27.1853 31.0648C27.1643 31.0648 27.1441 31.0574 27.128 31.0442C27.0598 30.9874 27.0042 30.9173 26.9645 30.8384C26.9147 30.7674 26.8811 30.6864 26.8658 30.6012C26.8624 30.5804 26.8664 30.559 26.8772 30.5407C26.888 30.5225 26.905 30.5085 26.9251 30.5014L27.703 30.2039L26.9251 29.9064C26.905 29.8991 26.8881 29.8852 26.8773 29.867C26.8665 29.8487 26.8625 29.8274 26.8658 29.8065C26.8808 29.7205 26.9145 29.6387 26.9645 29.5668C27.0021 29.4872 27.0573 29.4169 27.1259 29.3611C27.1421 29.3471 27.1631 29.3397 27.1847 29.3403C27.2062 29.3409 27.2267 29.3496 27.2421 29.3645L27.8922 29.8779L27.7605 29.0619C27.7551 29.0412 27.7578 29.0192 27.7681 29.0004C27.7784 28.9816 27.7954 28.9672 27.8158 28.9603C27.8994 28.9284 27.9891 28.9152 28.0785 28.9216C28.1671 28.9149 28.2562 28.9281 28.3389 28.9603C28.3594 28.9671 28.3767 28.9814 28.3869 29.0003C28.3974 29.0191 28.4002 29.0411 28.3946 29.0619L28.266 29.8779L28.9161 29.3611C28.9318 29.3466 28.9525 29.3386 28.9741 29.3386C28.9957 29.3386 29.0163 29.3466 29.0324 29.3611C29.0978 29.4198 29.1524 29.4894 29.1938 29.5668C29.2431 29.6386 29.2768 29.7198 29.2928 29.8052C29.2965 29.8264 29.2925 29.8482 29.2814 29.8665C29.27 29.8849 29.2524 29.8986 29.2317 29.9051L28.4594 30.2026L29.2317 30.5001C29.2527 30.5065 29.2703 30.5202 29.2814 30.5386C29.2925 30.557 29.2968 30.5788 29.2928 30.6C29.2761 30.6858 29.2425 30.7674 29.1938 30.8402C29.1549 30.9183 29.1006 30.9877 29.0339 31.0442C29.0173 31.0571 28.9963 31.0639 28.975 31.0639C28.9537 31.0639 28.933 31.0571 28.9161 31.0442L28.2642 30.5269L28.3931 31.3432C28.3989 31.3644 28.3961 31.3868 28.386 31.4058C28.3755 31.4252 28.3582 31.4396 28.3372 31.4467C28.2538 31.4765 28.1651 31.4885 28.0767 31.4823C27.9882 31.4882 27.8995 31.4759 27.8158 31.4467ZM21.7533 31.4467C21.7328 31.439 21.7159 31.4246 21.7056 31.4055C21.6954 31.3865 21.6927 31.3644 21.6979 31.3432L21.8266 30.5269L21.1766 31.0442C21.1605 31.0574 21.1403 31.0648 21.1193 31.0648C21.0983 31.0648 21.0781 31.0574 21.062 31.0442C20.9944 30.9868 20.9389 30.917 20.8985 30.8384C20.849 30.7674 20.8158 30.6864 20.8011 30.6012C20.7977 30.5804 20.8017 30.559 20.8125 30.5407C20.8233 30.5225 20.8402 30.5085 20.8604 30.5014L21.6366 30.2039L20.8604 29.9064C20.8403 29.8991 20.8234 29.8852 20.8126 29.867C20.8018 29.8487 20.7978 29.8274 20.8011 29.8065C20.8155 29.7205 20.8487 29.6387 20.8985 29.5668C20.9373 29.4873 20.993 29.417 21.062 29.3611C21.0778 29.3471 21.0982 29.3394 21.1193 29.3394C21.1404 29.3394 21.1608 29.3471 21.1766 29.3611L21.8284 29.8779L21.6996 29.0619C21.6943 29.0412 21.697 29.0192 21.7073 29.0004C21.7175 28.9816 21.7346 28.9672 21.755 28.9603C21.8373 28.9287 21.9256 28.9156 22.0137 28.9216C22.1031 28.9151 22.1928 28.9283 22.2763 28.9603C22.2968 28.9672 22.3138 28.9816 22.3241 29.0004C22.3343 29.0192 22.337 29.0412 22.3317 29.0619L22.2029 29.8779L22.85 29.3611C22.8654 29.3465 22.886 29.3383 22.9073 29.3383C22.9286 29.3383 22.9492 29.3465 22.9646 29.3611C23.0313 29.4191 23.0866 29.4888 23.1276 29.5668C23.1768 29.6387 23.2104 29.7199 23.2263 29.8052C23.2303 29.8264 23.2262 29.8482 23.215 29.8666C23.2038 29.885 23.1861 29.8987 23.1654 29.9051L22.3931 30.2026L23.1654 30.5001C23.1861 30.5065 23.2038 30.5202 23.215 30.5386C23.2262 30.557 23.2303 30.5788 23.2263 30.6C23.2099 30.6857 23.1764 30.7674 23.1276 30.8402C23.0885 30.9183 23.0336 30.9877 22.9663 31.0442C22.9497 31.0571 22.9293 31.0642 22.9082 31.0642C22.8871 31.0642 22.8666 31.0571 22.85 31.0442L22.2017 30.5269L22.3304 31.3432C22.3356 31.3644 22.3329 31.3865 22.3227 31.4055C22.3125 31.4246 22.2955 31.439 22.2751 31.4467C22.1909 31.4762 22.1015 31.4882 22.0124 31.4823C21.9245 31.4879 21.8363 31.4759 21.7533 31.4467ZM15.6907 31.4467C15.6701 31.4396 15.6529 31.4252 15.6426 31.4061C15.6323 31.3871 15.6297 31.365 15.6354 31.3441L15.7641 30.5277L15.1157 31.0442C15.0997 31.0574 15.0794 31.0648 15.0584 31.0648C15.0375 31.0648 15.0172 31.0574 15.0012 31.0442C14.9335 30.9868 14.878 30.917 14.8377 30.8384C14.7882 30.7674 14.755 30.6864 14.7403 30.6012C14.7364 30.5806 14.74 30.5593 14.7505 30.541C14.7609 30.5228 14.7775 30.5087 14.7973 30.5014L15.5753 30.2039L14.7973 29.9064C14.7769 29.8989 14.7599 29.8844 14.7495 29.8655C14.739 29.8466 14.7357 29.8246 14.7403 29.8035C14.7546 29.7176 14.7877 29.6358 14.8373 29.5638C14.8746 29.4842 14.9295 29.4138 14.9978 29.3577C15.014 29.3437 15.035 29.3363 15.0566 29.3369C15.0781 29.3375 15.0986 29.3462 15.114 29.3611L15.7654 29.8779L15.6354 29.0619C15.63 29.0412 15.6327 29.0192 15.643 29.0004C15.6532 28.9816 15.6703 28.9672 15.6907 28.9603C15.7735 28.9282 15.8625 28.915 15.9512 28.9216C16.04 28.9149 16.1291 28.9282 16.212 28.9603C16.2325 28.9672 16.2495 28.9816 16.2598 29.0004C16.2701 29.0192 16.2728 29.0412 16.2674 29.0619L16.1387 29.8779L16.787 29.3611C16.8029 29.3465 16.8237 29.3384 16.8454 29.3384C16.867 29.3384 16.8879 29.3465 16.9037 29.3611C16.9702 29.4189 17.025 29.4887 17.0651 29.5668C17.1156 29.6379 17.1493 29.7194 17.1638 29.8052C17.1679 29.8262 17.1641 29.8478 17.1532 29.8662C17.1423 29.8846 17.125 29.8984 17.1045 29.9051L16.33 30.2026L17.1045 30.5001C17.1251 30.5067 17.1424 30.5205 17.1533 30.5389C17.1643 30.5573 17.168 30.579 17.1638 30.6C17.1489 30.6861 17.1152 30.768 17.0651 30.8402C17.0271 30.9195 16.9726 30.9898 16.905 31.0467C16.8881 31.0596 16.8674 31.0667 16.846 31.0667C16.8247 31.0667 16.8039 31.0596 16.787 31.0467L16.1374 30.5269L16.2661 31.3432C16.272 31.3644 16.2695 31.3868 16.2592 31.4058C16.2489 31.4252 16.2316 31.4396 16.2107 31.4467C16.1273 31.4765 16.0384 31.4885 15.9499 31.4823C15.8619 31.4882 15.7737 31.4762 15.6907 31.4467Z" fill="#4D5999"></path></g></g></g></g><defs><linearGradient id="paint0_linear_7081_17392" x1="20.2442" y1="31.5935" x2="17.6117" y2="13.0817" gradientUnits="userSpaceOnUse"><stop stop-color="#E6E9FF"></stop><stop offset="1" stop-color="#E6E9FF" stop-opacity="0"></stop></linearGradient><clipPath id="clip0_7081_17392"><rect width="51" height="51" fill="white" transform="translate(0.960938)"></rect></clipPath></defs></svg>