<?xml version="1.0" encoding="utf-8"?>
<svg viewBox="0.148 0.288 64.002 48" width="64.002" height="48" xmlns="http://www.w3.org/2000/svg">
  <path data-name="Union 2" d="M38.37 48a3.512 3.512 0 1 1 0-7.025h8.488a10.54 10.54 0 0 0 0-21.073H18.941a3.512 3.512 0 0 1 0-7.025h28.176q.111 0 .22.007A17.369 17.369 0 0 1 64 30.439a17.407 17.407 0 0 1-15.515 17.483 3.525 3.525 0 0 1-.74.078zM17.143 35.123h-.66a3.534 3.534 0 0 1-.552-.043A17.394 17.394 0 0 1 0 17.561 17.393 17.393 0 0 1 15.932.043 3.537 3.537 0 0 1 16.483 0h28.576a3.512 3.512 0 0 1 0 7.025H17.143A10.413 10.413 0 0 0 6.857 17.561 10.414 10.414 0 0 0 17.143 28.1h27.916a3.512 3.512 0 0 1 0 7.024z" transform="matrix(1, 0, 0, 1, 0.148739, 0.28833)" style="fill:#333b65;stroke:transparent"/>
</svg>